<svg xmlns="http://www.w3.org/2000/svg" viewBox="0 0 280 280" fill="none">
  <g stroke="#748166" stroke-width="1.15" stroke-linecap="round" stroke-linejoin="round">
    <path d="M-8 272C26 217 23 152 64 98S148 29 256-8"/>
    <path d="M23 214C8 191 4 166 9 144C26 156 33 181 23 214ZM32 186C51 180 68 160 69 139C47 143 33 162 32 186ZM43 140C23 129 18 103 23 84C43 97 48 116 43 140ZM57 109C79 107 98 91 107 70C83 68 65 85 57 109ZM82 78C65 57 66 36 76 18C91 34 94 56 82 78ZM117 51C140 56 162 43 173 28C150 22 130 30 117 51ZM154 29C149 10 153-5 164-14M191 13C211 24 238 18 254 4"/>
    <path d="M23 214L11 158M33 184L61 149M43 139L26 96M60 107L96 77M83 75L77 30M119 49L160 31" opacity=".45"/>
    <path d="M-4 117C16 67 59 28 121-5M15 80C5 62 6 45 12 31C24 43 24 64 15 80ZM36 50C52 54 68 45 77 31C58 29 45 35 36 50" opacity=".6"/>
  </g>
</svg>
